/* XPM */
static char *result[] = {
/* columns rows colors chars-per-pixel */
"48 48 20 1 ",
"  c #0E071B",
". c #100515",
"X c #131313",
"o c #1A1932",
"O c #391F21",
"+ c #571C27",
"@ c #5D2C28",
"# c #2A2F4E",
"$ c #424C6E",
"% c #BF6F4A",
"& c #E67C44",
"* c #FFAD5D",
"= c #E69C69",
"- c gray52",
"; c #92A1B9",
": c #B4B4B4",
"> c #F6CA9F",
", c #C7CFDD",
"< c #FFFCFC",
"1 c white",
/* pixels */
"*****************,,,****************************",
"***&*************;;,;;.;;;,,,*******************",
"***&***************;..;;;,,,,,,*****************",
"*&&****************;..;;;,,,,,,*****************",
"********************;;;;;======*,,**************",
"*******************,;;;==;,,>;;,****************",
"*******************,;;;==;,,>;;,****************",
"*****************,,;;;===XXX>XX*****************",
"****************,,,;;;;=====>==*****************",
"****************,,,;;;;=====>==*****************",
"**************,,,,,;;;;,,=,,,,,*****************",
"*************,,,,;;*;;;;;,;;;;;,****************",
"*************,,,,;;*;;;;;,;;;;;,****************",
"***********,,,,,;**<<<:;;;;;,,,;****************",
"**********,,,,;;*11111<::;;;;,,;****************",
"**********,,,,;;*11111<::;;;;,,;****************",
"**********,,,,;;*11111111:;;;;;;****************",
"********,,,,,;**111111:111::;;;o****************",
"********,,,,,;**111111:111::;;;o****************",
"********,,,;;***1111::-::1::$##ooo********&*****",
"********;;;*****111:-----:--$##ooo********&*****",
"********;;;*****111:-----:--$##ooo*********&&***",
"**********;***11111:---::-$$$##oooo*************",
"**************11111:--:::-$$###oooo*************",
"**************11111:--:::-$$###oooo*************",
"***&**********111::*-----$$$###oooo*************",
"***&**********111::*$$   $#####oooo*************",
"*&&***********111::*$$   $#####oooo*************",
"****************1::;            ooooo***********",
"****************@OO;   #####ooooOOOOO***********",
"****************@OO;   #####ooooOOOOO***********",
"****************@OO;;;;#####ooooOOOOO***********",
"****************>===++######oooo**%%%***********",
"****************>===++######oooo**%%%***********",
"****************>>>=##$$$#oooooooo%%%***********",
"**************+++++#$$$$$#oooooooo**************",
"**************+++++#$$$$$#oooooooo**************",
"*************++++###$$$###oooooooo**************",
"***********+++++###$$$$##ooooooooo**************",
"***********+++++###$$$$##ooooooooo**************",
"**********++++**###$$$###ooooooooo**************",
"********+++++****######**ooooooo****************",
"********+++++****######**ooooooo****************",
"*******+++*******@@@OO****OOOoo***********&*****",
"*****************@@@OO****OOO*************&*****",
"*****************@@@OO****OOO**************&&***",
"****************@@@O******OOOOO*****************",
"****************OOOO******OOOOOO****************"
};
